<?xml version="1.0" encoding="iso-8859-1"?>
<!-- Generator: Adobe Illustrator 19.0.0, SVG Export Plug-In . SVG Version: 6.00 Build 0)  -->
<svg version="1.1" id="Capa_1" xmlns="http://www.w3.org/2000/svg" xmlns:xlink="http://www.w3.org/1999/xlink" x="0px" y="0px"
	 viewBox="0 0 496 496" style="enable-background:new 0 0 496 496;" xml:space="preserve">
<g>
	<path style="fill:#E56565;" d="M16,327.996H0V110.412c0-21.576,7.896-42.336,22.232-58.464l37.224-41.872
		c5.688-6.4,13.848-10.072,22.408-10.072c0.008,0,0.024,0,0.032,0C98.544,0.012,112,13.476,112,30.012
		c0,8.648-3.736,16.88-10.24,22.576L67.128,82.892C54.968,93.524,48,108.884,48,125.036v170.96H32v-170.96
		c0-20.76,8.96-40.504,24.592-54.184l34.624-30.296C94.256,37.892,96,34.052,96,30.012c0-7.72-6.28-14-14-14.008
		c0,0-0.008,0-0.016,0c-4.12,0-7.92,1.712-10.576,4.696L34.184,62.572C22.464,75.772,16,92.764,16,110.412V327.996z"/>
	<path style="fill:#E56565;" d="M496,327.996h-16V110.412c0-17.648-6.464-34.64-18.184-47.832L424.6,20.708
		c-2.656-2.984-6.464-4.696-10.456-4.696c0,0-0.008,0-0.016,0c-7.848,0-14.128,6.28-14.128,14c0,4.04,1.744,7.88,4.792,10.544
		l34.616,30.288C455.04,84.524,464,104.276,464,125.036v170.96h-16v-170.96c0-16.152-6.968-31.504-19.128-42.144l-34.624-30.296
		C387.736,46.892,384,38.66,384,30.012c0-16.536,13.456-30,29.984-30.008c0.016,0,0.032,0,0.04,0c8.672,0,16.832,3.672,22.52,10.072
		l37.216,41.872C488.104,68.076,496,88.828,496,110.412V327.996z"/>
</g>
<path style="fill:#FFCB57;" d="M384,311.996c-64,0-80,24-136,24s-72-24-136-24s-104,16-104,16v32c24,8,8,128,112,128s80-120,128-120
	s24,120,128,120s88-120,112-128v-32C488,327.996,448,311.996,384,311.996z M120,455.996c-56.568,0-64-48-64-80s32-32,64-32
	c48,0,64,16,64,40C184,399.996,184,455.996,120,455.996z M376,455.996c-64,0-64-56-64-72c0-24,16-40,64-40c32,0,64,0,64,32
	S432.568,455.996,376,455.996z"/>
<g>
	<path style="fill:#3F3A34;" d="M120,463.996c-32.84,0-72-15.264-72-88c0-40,39.92-40,72-40c47.776,0,72,16.152,72,48
		C192,450.116,152.84,463.996,120,463.996z M120,351.996c-38.064,0-56,2.368-56,24c0,48.448,18.32,72,56,72c50.192,0,56-36.52,56-64
		C176,369.1,169.632,351.996,120,351.996z"/>
	<path style="fill:#3F3A34;" d="M376,495.996c-67.4,0-85.84-47.44-99.312-82.08c-9.416-24.216-15.392-37.92-28.688-37.92
		s-19.272,13.704-28.688,37.92c-13.472,34.64-31.912,82.08-99.312,82.08c-77.456,0-94.064-62.84-103.984-100.4
		C13.36,385.548,8.912,368.74,5.472,367.58L0,365.764v-43.176l5.032-2.016C6.72,319.892,47.2,303.996,112,303.996
		c34.304,0,55.152,6.592,75.312,12.976c17.92,5.664,34.856,11.024,60.688,11.024s42.768-5.36,60.688-11.024
		c20.16-6.384,41.008-12.976,75.312-12.976c64.8,0,105.28,15.896,106.968,16.568L496,322.58v43.176l-5.472,1.824
		c-3.448,1.16-7.888,17.968-10.544,28.016C470.064,433.156,453.456,495.996,376,495.996z M248,359.996
		c24.888,0,33.976,23.376,43.6,48.128c13.104,33.688,27.944,71.872,84.4,71.872c65.136,0,78.648-51.144,88.512-88.488
		c4.456-16.856,7.888-29.856,15.488-36.08V333.66c-12.448-4.04-47.192-13.664-96-13.664c-31.832,0-51.488,6.216-70.488,12.224
		c-18.296,5.792-37.208,11.776-65.512,11.776s-47.216-5.984-65.512-11.776c-19-6.008-38.656-12.224-70.488-12.224
		c-48.808,0-83.552,9.624-96,13.672v21.768c7.592,6.216,11.032,19.216,15.488,36.08c9.864,37.336,23.376,88.48,88.512,88.48
		c56.456,0,71.296-38.184,84.4-71.872C214.024,383.372,223.112,359.996,248,359.996z"/>
	<path style="fill:#3F3A34;" d="M376,463.996c-32.84,0-72-13.88-72-80c0-31.848,24.224-48,72-48c32.08,0,72,0,72,40
		C448,448.732,408.84,463.996,376,463.996z M376,351.996c-49.632,0-56,17.104-56,32c0,27.48,5.808,64,56,64c37.68,0,56-23.552,56-72
		C432,354.364,414.064,351.996,376,351.996z"/>
</g>
<g>
</g>
<g>
</g>
<g>
</g>
<g>
</g>
<g>
</g>
<g>
</g>
<g>
</g>
<g>
</g>
<g>
</g>
<g>
</g>
<g>
</g>
<g>
</g>
<g>
</g>
<g>
</g>
<g>
</g>
</svg>
